<?xml version="1.0" standalone="no"?>
<!DOCTYPE svg PUBLIC "-//W3C//DTD SVG 20010904//EN"
 "http://www.w3.org/TR/2001/REC-SVG-20010904/DTD/svg10.dtd">
<svg version="1.0" xmlns="http://www.w3.org/2000/svg"
 width="1280.000000pt" height="640.000000pt" viewBox="0 0 1280.000000 640.000000"
 preserveAspectRatio="xMidYMid meet">
<g transform="translate(0.000000,640.000000) scale(0.100000,-0.100000)"
fill="#000000" stroke="none">
<path d="M820 4339 c-111 -13 -217 -42 -340 -94 -212 -90 -418 -231 -465 -318
l-19 -35 28 -37 c33 -43 85 -78 106 -71 369 119 556 110 697 -33 78 -79 118
-166 168 -364 52 -207 86 -300 169 -472 113 -235 236 -414 395 -578 234 -242
413 -317 660 -277 274 45 636 281 814 532 107 150 147 258 147 395 0 194 -90
372 -294 581 -170 175 -378 321 -646 456 -503 254 -998 363 -1420 315z"/>
<path d="M12335 4004 c-16 -2 -73 -9 -125 -15 -816 -90 -1892 -509 -2959
-1154 -321 -193 -474 -294 -979 -644 -609 -423 -1199 -666 -1837 -756 -703
-99 -1385 -33 -2095 205 -469 156 -953 392 -1343 653 -49 32 -91 57 -93 54 -8
-7 141 -143 268 -244 455 -363 1006 -649 1555 -808 245 -72 453 -114 713 -147
166 -21 681 -18 850 5 549 74 1057 252 1581 553 170 97 348 216 570 379 1170
864 2094 1377 3029 1683 456 149 798 214 1235 235 33 2 -30 3 -140 4 -110 0
-213 -2 -230 -3z"/>
<path d="M6151 3745 c-7 -16 -25 -75 -41 -130 -105 -367 -118 -724 -35 -973
110 -329 416 -569 822 -646 122 -23 328 -37 423 -29 l85 8 31 48 c78 119 121
283 111 426 -12 171 -87 315 -237 454 -147 136 -252 186 -469 222 -84 14 -181
37 -218 50 -202 76 -406 319 -447 531 -13 68 -13 69 -25 39z"/>
<path d="M11022 3311 c-217 -161 -410 -406 -498 -632 -163 -419 -37 -807 386
-1193 148 -136 392 -308 398 -281 5 21 22 19 64 -10 20 -14 39 -25 42 -25 3 0
-8 22 -24 49 -88 143 -111 365 -59 569 27 107 68 176 189 316 71 83 120 151
143 198 74 153 105 378 73 538 -55 273 -279 472 -592 524 -38 7 -45 4 -122
-53z"/>
</g>
</svg>
